<svg width="1280" height="400" viewBox="0 0 1280 400" xmlns="http://www.w3.org/2000/svg">
  <defs>
    <pattern id="dg" width="26" height="26" patternUnits="userSpaceOnUse">
      <circle cx="13" cy="13" r="1.6" fill="#16181B"/>
    </pattern>
  </defs>
  <rect width="1280" height="400" fill="#0A0B0D"/>
  <rect width="1280" height="400" fill="url(#dg)"/>
  <g transform="translate(560.6, 40) scale(0.62)">
    <path d="M 138.00 128.00 L 138.73 130.18 L 138.96 132.63 L 138.60 135.25 L 137.61 137.90 L 135.97 140.41 L 133.69 142.63 L 130.83 144.40 L 127.49 145.59 L 123.79 146.06 L 119.89 145.72 L 115.97 144.53 L 112.23 142.45 L 108.86 139.52 L 106.06 135.80 L 104.01 131.42 L 102.86 126.53 L 102.73 121.32 L 103.71 116.01 L 105.83 110.85 L 109.06 106.07 L 113.33 101.91 L 118.51 98.61 L 124.43 96.37 L 130.87 95.35 L 137.57 95.66 L 144.25 97.36 L 150.61 100.47 L 156.37 104.91 L 161.23 110.57 L 164.94 117.25 L 167.29 124.72 L 168.10 132.71 L 167.27 140.87 L 164.75 148.89 L 160.58 156.39 L 154.87 163.06 L 147.79 168.55 L 139.57 172.59 L 130.54 174.95 L 121.02 175.46 L 111.41 174.02 L 102.11 170.61 L 93.51 165.32 L 86.02 158.28 L 79.97 149.72 L 75.69 139.96 L 73.41 129.35 L 73.29 118.31 L 75.42 107.29 L 79.79 96.74 L 86.28 87.12 L 94.70 78.86 L 104.76 72.35 L 116.10 67.91 L 128.28 65.80 L 140.82 66.16 L 153.22 69.07 L 164.97 74.47 L 175.55 82.23 L 184.49 92.08 L 191.39 103.68 L 195.90 116.60 L 197.76 130.35 L 196.82 144.38 L 193.06 158.12 L 186.54 171.01 L 177.47 182.49 L 166.14 192.04 L 152.97 199.24 L 138.45 203.72 L 123.14 205.24 L 107.65 203.65 L 92.60 198.95 L 78.63 191.25 L 66.32 180.79 L 56.24 167.95 L 48.82 153.18 L 44.46 137.05 L 43.38 120.19 L 45.71 103.26 L 51.43 86.96 L 60.38 71.96 L 72.26 58.90 L 86.66 48.36 L 103.05 40.82 L 120.79 36.66" fill="none" stroke="#F5F6F7" stroke-width="15" stroke-linecap="round" stroke-linejoin="round"/>
    <circle cx="120.79" cy="36.66" r="9" fill="#F5F6F7"/>
  </g>
  <text x="640" y="278" text-anchor="middle" font-family="JetBrains Mono" font-weight="800" font-size="68" letter-spacing="2" fill="#F5F6F7">coil</text>
  <text x="640" y="320" text-anchor="middle" font-family="JetBrains Mono" font-size="19" letter-spacing="3" fill="#9AA0A6">a hackable coding agent that runs in your terminal</text>
  <text x="640" y="356" text-anchor="middle" font-family="JetBrains Mono" font-size="14" letter-spacing="2" fill="#5F666D">$ coil run ./heal.loop</text>
</svg>
