<svg width="64" height="64" viewBox="0 0 64 64" xmlns="http://www.w3.org/2000/svg">
  <rect width="64" height="64" rx="14" fill="#0B0C0E"/>
  <path d="M 35.00 32.00 L 35.18 32.58 L 35.24 33.22 L 35.17 33.90 L 34.95 34.59 L 34.58 35.26 L 34.07 35.87 L 33.41 36.40 L 32.63 36.81 L 31.75 37.08 L 30.79 37.17 L 29.79 37.09 L 28.79 36.80 L 27.82 36.32 L 26.93 35.63 L 26.15 34.77 L 25.53 33.73 L 25.09 32.57 L 24.87 31.30 L 24.89 29.97 L 25.16 28.62 L 25.69 27.32 L 26.47 26.09 L 27.49 25.00 L 28.73 24.10 L 30.15 23.41 L 31.71 22.99 L 33.36 22.85 L 35.05 23.03 L 36.72 23.51 L 38.31 24.32 L 39.76 25.42 L 41.01 26.80 L 42.02 28.42 L 42.72 30.23 L 43.10 32.19 L 43.11 34.22 L 42.75 36.25 L 42.01 38.23 L 40.91 40.08 L 39.46 41.73 L 37.70 43.11 L 35.69 44.17 L 33.47 44.87 L 31.13 45.15 L 28.73 45.01 L 26.36 44.42 L 24.10 43.40 L 22.02 41.97 L 20.21 40.15 L 18.73 38.00 L 17.64 35.59 L 17.00 32.97 L 16.84 30.25 L 17.18 27.49 L 18.02 24.80 L 19.35 22.28 L 21.14 20.00 L 23.34 18.05 L 25.89 16.51 L 28.72 15.44 L 31.73 14.89 L 34.84 14.89 L 37.94 15.45 L 40.92 16.58 L 43.68 18.25 L 46.13 20.42 L 48.18 23.03 L 49.75 25.99 L 50.76 29.23 L 51.19 32.65 L 50.99 36.12 L 50.16 39.54 L 48.71 42.79 L 46.67 45.77 L 44.11 48.36 L 41.09 50.47 L 37.70 52.02 L 34.04 52.95 L 30.24 53.21 L 26.41 52.77 L 22.68 51.65 L 19.18 49.85 L 16.03 47.43 L 13.33 44.44 L 11.19 40.99 L 9.69 37.18 L 8.90 33.11 L 8.84 28.92 L 9.55 24.76 L 11.00 20.74" fill="none" stroke="#F5F6F7" stroke-width="4.5" stroke-linecap="round" stroke-linejoin="round"/>
  <circle cx="11.00" cy="20.74" r="2.8" fill="#F5F6F7"/>
</svg>
